<svg xmlns="http://www.w3.org/2000/svg" fill-rule="evenodd" stroke-linejoin="round" stroke-miterlimit="2" clip-rule="evenodd" viewBox="0 0 417 595"><defs><linearGradient id="a" x1="0" x2="1" y1="0" y2="0" gradientTransform="matrix(1 0 0 -1 0 .004)" gradientUnits="userSpaceOnUse"><stop offset="0" stop-color="#4ee8c4"/><stop offset=".5" stop-color="#f5c468"/><stop offset="1" stop-color="#e84898"/></linearGradient><linearGradient id="c" x1="0" x2="1" y1="0" y2="0" gradientTransform="rotate(73.64 0 .623)scale(-1 1)" gradientUnits="userSpaceOnUse"><stop offset="0" stop-color="#9a8040"/><stop offset=".5" stop-color="#c4a858"/><stop offset="1" stop-color="#e0c878"/></linearGradient><linearGradient id="e" x1="0" x2="1" y1="0" y2="0" gradientTransform="rotate(108.304 .437 0)scale(1 -1)" gradientUnits="userSpaceOnUse"><stop offset="0" stop-color="#9a8040"/><stop offset=".5" stop-color="#88b068"/><stop offset="1" stop-color="#78c898"/></linearGradient><linearGradient id="g" x1="0" x2="1" y1="0" y2="0" gradientTransform="matrix(1 0 0 -1 0 .032)" gradientUnits="userSpaceOnUse"><stop offset="0" stop-color="#1a4868"/><stop offset=".5" stop-color="#655aa4"/><stop offset="1" stop-color="#b06ce0"/></linearGradient><linearGradient id="i" x1="0" x2="1" y1="0" y2="0" gradientTransform="matrix(1 0 0 -1 0 -.017)" gradientUnits="userSpaceOnUse"><stop offset="0" stop-color="#1a4868"/><stop offset=".5" stop-color="#655aa4"/><stop offset="1" stop-color="#b06ce0"/></linearGradient><linearGradient id="k" x1="0" x2="1" y1="0" y2="0" gradientTransform="matrix(1 0 0 -1 0 .002)" gradientUnits="userSpaceOnUse"><stop offset="0" stop-color="#1a4868"/><stop offset=".5" stop-color="#655aa4"/><stop offset="1" stop-color="#b06ce0"/></linearGradient><linearGradient id="m" x1="0" x2="1" y1="0" y2="0" gradientTransform="matrix(1 0 0 -1 0 -.015)" gradientUnits="userSpaceOnUse"><stop offset="0" stop-color="#1a4868"/><stop offset=".5" stop-color="#655aa4"/><stop offset="1" stop-color="#b06ce0"/></linearGradient><clipPath id="b"><path d="M-4.765-3.074-5.983 6.44 7.592 8.177l1.217-9.514z"/></clipPath><clipPath id="d"><path d="m-2.64-3.137-.734 5.838 8.33 1.047.734-5.838z"/></clipPath><clipPath id="f"><path d="M2.301-2.275-1.088.168 2.4 5.005 5.788 2.56z"/></clipPath><clipPath id="h"><path d="m1.402-1.924-1.71.025.037 2.44L1.438.514z"/></clipPath><clipPath id="j"><path d="m1.342-1.88-4.615-1.174-1.675 6.585 4.615 1.174z"/></clipPath><clipPath id="l"><path d="m-.82-3.374-2.813 1.649 2.352 4.014L1.533.641z"/></clipPath></defs><path fill="url(#a)" fill-rule="nonzero" d="M.069-.235c.048-.049.125-.061.192-.048A.7.7 0 0 1 .449-.2C.459-.246.426-.291.39-.321Q.375-.332.367-.348a.03.03 0 0 1 0-.02l.005-.014c.014-.023.051-.044.077-.031a.2.2 0 0 1 .061.07c.022.042.03.092.021.139a.2.2 0 0 1-.014.041l.004.002q.165.087.323.186a.13.13 0 0 1 .047.044c.01.02.008.047-.01.059C.861.14.836.13.816.118L.792.104C.746.076.7.045.648.033a.22.22 0 0 0-.134.012L.487.059C.473.068.459.082.463.097q.004.011.013.018c.056.048.128.073.19.113C.7.25.735.282.737.324.739.364.708.401.67.415a.2.2 0 0 1-.118.001L.531.409.509.392A.05.05 0 0 1 .507.346a.04.04 0 0 1 .04-.022L.56.326c.026.007.049.03.076.027L.643.351C.649.345.642.336.635.331.587.297.529.281.476.256S.37.191.357.133a.15.15 0 0 1 .042-.13.23.23 0 0 1 .125-.061L.461-.093a.3.3 0 0 1-.171.085.3.3 0 0 1-.186-.044C.067-.076.034-.113.033-.156q.001-.035.022-.062zm.255.07a.4.4 0 0 0-.069-.027.15.15 0 0 0-.09.001.07.07 0 0 0-.051.052c-.006.026.016.038.037.05a.22.22 0 0 0 .177.02.2.2 0 0 0 .081-.053z" transform="rotate(125.676 186.083 130.547)scale(669.95828 -669.95828)"/><g clip-path="url(#b)" transform="rotate(97.291 -44.8 158.015)scale(43.481 -43.481)"><path fill="url(#c)" fill-rule="nonzero" d="M-.045.226h1.191S1.104-.295.973-.598l-1.266.37s.173.188.248.454"/></g><g clip-path="url(#d)" transform="rotate(97.178 4.444 193.502)scale(70.81243 -70.81243)"><path fill="url(#e)" fill-rule="nonzero" d="M.279-.283h.563S.762.085.507.462L.018.304s.223-.305.261-.587"/></g><g clip-path="url(#f)" transform="rotate(144.211 151.535 76.45)scale(99.84414 -99.84414)"><path fill="url(#g)" fill-rule="nonzero" d="M.346.278C.467.38.608.455.759.501A1.4 1.4 0 0 1 .52.282C.415.162.301.039.395-.114a.49.49 0 0 1 .434-.229c.209-.002.401.078.574.191a1.4 1.4 0 0 0-.347-.211C.843-.45.596-.47.386-.377c-.103.045-.2.124-.23.232-.043.158.065.317.19.423"/></g><g clip-path="url(#h)" transform="rotate(179.142 173.112 233.895)scale(244.39246 -244.39246)"><path fill="url(#i)" fill-rule="nonzero" d="M-.267.164a.53.53 0 0 0 .213.318C.039.541.17.549.255.479.343.406.359.278.351.165c-.013-.201-.076-.4-.06-.601.001-.02.004-.042.017-.058.027-.035.082-.027.123-.01l.075.037a.4.4 0 0 0-.2-.091C.261-.565.211-.563.178-.533.14-.498.138-.44.143-.389c.02.2.113.393.1.594C.239.276.216.353.156.389a.18.18 0 0 1-.131.014.4.4 0 0 1-.119-.062.8.8 0 0 1-.173-.177"/></g><g clip-path="url(#j)" transform="rotate(-165.727 48.434 89.676)scale(87.54945 -87.54945)"><path fill="url(#k)" fill-rule="nonzero" d="M-.312.817C.048.755.384.556.62.278c.136-.159.305-.41.325-.624C.966-.57.716-.779.514-.808a.4.4 0 0 0-.116-.001A1.9 1.9 0 0 1-.312.817"/></g><g clip-path="url(#l)" transform="rotate(149.636 6.18 229.808)scale(127.8157 -127.8157)"><path fill="url(#m)" fill-rule="nonzero" d="m.268.769.086.122c.07.096.17.199.288.182.113-.017.182-.144.175-.258C.81.702.747.6.685.504.329-.042-.068-.56-.464-1.077l-.049-.029C-.046-.597.232.08.268.769"/></g></svg>