<?xml version="1.0" encoding="UTF-8" standalone="no"?>
<!DOCTYPE svg PUBLIC "-//W3C//DTD SVG 1.1//EN" "http://www.w3.org/Graphics/SVG/1.1/DTD/svg11.dtd">
<svg width="100%" height="100%" viewBox="0 0 417 595" version="1.1" xmlns="http://www.w3.org/2000/svg" xmlns:xlink="http://www.w3.org/1999/xlink" xml:space="preserve" xmlns:serif="http://www.serif.com/" style="fill-rule:evenodd;clip-rule:evenodd;stroke-linejoin:round;stroke-miterlimit:2;">
    <g transform="matrix(-390.720336,544.225795,544.225795,390.720336,400.65376,55.52173)">
        <path d="M0.069,-0.235C0.117,-0.284 0.194,-0.296 0.261,-0.283C0.327,-0.265 0.391,-0.237 0.449,-0.2C0.459,-0.246 0.426,-0.291 0.39,-0.321C0.38,-0.328 0.372,-0.337 0.367,-0.348C0.365,-0.354 0.365,-0.362 0.367,-0.368L0.372,-0.382C0.386,-0.405 0.423,-0.426 0.449,-0.413C0.475,-0.395 0.495,-0.371 0.51,-0.343C0.532,-0.301 0.54,-0.251 0.531,-0.204C0.528,-0.19 0.523,-0.176 0.517,-0.163L0.521,-0.161C0.631,-0.103 0.739,-0.041 0.844,0.025C0.863,0.035 0.879,0.051 0.891,0.069C0.901,0.089 0.899,0.116 0.881,0.128C0.861,0.14 0.836,0.13 0.816,0.118L0.792,0.104C0.746,0.076 0.7,0.045 0.648,0.033C0.603,0.023 0.556,0.027 0.514,0.045L0.487,0.059C0.473,0.068 0.459,0.082 0.463,0.097C0.466,0.104 0.47,0.11 0.476,0.115C0.532,0.163 0.604,0.188 0.666,0.228C0.7,0.25 0.735,0.282 0.737,0.324C0.739,0.364 0.708,0.401 0.67,0.415C0.632,0.427 0.591,0.428 0.552,0.416L0.531,0.409L0.509,0.392C0.501,0.378 0.5,0.361 0.507,0.346C0.514,0.331 0.53,0.322 0.547,0.324L0.56,0.326C0.586,0.333 0.609,0.356 0.636,0.353L0.643,0.351C0.649,0.345 0.642,0.336 0.635,0.331C0.587,0.297 0.529,0.281 0.476,0.256C0.423,0.231 0.37,0.191 0.357,0.133C0.349,0.085 0.365,0.037 0.399,0.003C0.433,-0.03 0.477,-0.051 0.524,-0.058L0.461,-0.093C0.415,-0.047 0.355,-0.017 0.29,-0.008C0.225,-0.002 0.16,-0.017 0.104,-0.052C0.067,-0.076 0.034,-0.113 0.033,-0.156C0.034,-0.179 0.041,-0.2 0.055,-0.218L0.069,-0.235ZM0.324,-0.165C0.302,-0.176 0.279,-0.185 0.255,-0.192C0.226,-0.201 0.194,-0.201 0.165,-0.191C0.14,-0.185 0.12,-0.164 0.114,-0.139C0.108,-0.113 0.13,-0.101 0.151,-0.089C0.205,-0.058 0.269,-0.05 0.328,-0.069C0.359,-0.08 0.387,-0.098 0.409,-0.122L0.324,-0.165Z" style="fill:url(#_Linear1);fill-rule:nonzero;"/>
    </g>
    <g transform="matrix(-5.518122,43.12943,43.12943,5.518122,106.251838,222.506259)">
        <clipPath id="_clip2">
            <path d="M-4.765,-3.074L-5.983,6.44L7.592,8.177L8.809,-1.337L-4.765,-3.074Z"/>
        </clipPath>
        <g clip-path="url(#_clip2)">
            <path d="M-0.045,0.226L1.146,0.226C1.146,0.226 1.104,-0.295 0.973,-0.598L-0.293,-0.228C-0.293,-0.228 -0.12,-0.04 -0.045,0.226" style="fill:url(#_Linear3);fill-rule:nonzero;"/>
        </g>
    </g>
    <g transform="matrix(-8.848175,70.257455,70.257455,8.848175,196.984765,213.271345)">
        <clipPath id="_clip4">
            <path d="M-2.64,-3.137L-3.374,2.701L4.956,3.748L5.69,-2.09L-2.64,-3.137Z"/>
        </clipPath>
        <g clip-path="url(#_clip4)">
            <path d="M0.279,-0.283L0.842,-0.283C0.842,-0.283 0.762,0.085 0.507,0.462L0.018,0.304C0.018,0.304 0.241,-0.001 0.279,-0.283" style="fill:url(#_Linear5);fill-rule:nonzero;"/>
        </g>
    </g>
    <g transform="matrix(-80.991181,58.389048,58.389048,80.991181,319.164681,49.84645)">
        <clipPath id="_clip6">
            <path d="M2.301,-2.275L-1.088,0.168L2.4,5.005L5.788,2.56L2.301,-2.275Z"/>
        </clipPath>
        <g clip-path="url(#_clip6)">
            <path d="M0.346,0.278C0.467,0.38 0.608,0.455 0.759,0.501C0.671,0.438 0.591,0.364 0.52,0.282C0.415,0.162 0.301,0.039 0.395,-0.114C0.488,-0.262 0.654,-0.35 0.829,-0.343C1.038,-0.345 1.23,-0.265 1.403,-0.152C1.298,-0.239 1.181,-0.31 1.056,-0.363C0.843,-0.45 0.596,-0.47 0.386,-0.377C0.283,-0.332 0.186,-0.253 0.156,-0.145C0.113,0.013 0.221,0.172 0.346,0.278" style="fill:url(#_Linear7);fill-rule:nonzero;"/>
        </g>
    </g>
    <g transform="matrix(-244.365058,3.659622,3.659622,244.365058,349.707019,465.171533)">
        <clipPath id="_clip8">
            <path d="M1.402,-1.924L-0.308,-1.899L-0.271,0.541L1.438,0.514L1.402,-1.924Z"/>
        </clipPath>
        <g clip-path="url(#_clip8)">
            <path d="M-0.267,0.164C-0.238,0.293 -0.162,0.406 -0.054,0.482C0.039,0.541 0.17,0.549 0.255,0.479C0.343,0.406 0.359,0.278 0.351,0.165C0.338,-0.036 0.275,-0.235 0.291,-0.436C0.292,-0.456 0.295,-0.478 0.308,-0.494C0.335,-0.529 0.39,-0.521 0.431,-0.504L0.506,-0.467C0.449,-0.515 0.38,-0.547 0.306,-0.558C0.261,-0.565 0.211,-0.563 0.178,-0.533C0.14,-0.498 0.138,-0.44 0.143,-0.389C0.163,-0.189 0.256,0.004 0.243,0.205C0.239,0.276 0.216,0.353 0.156,0.389C0.116,0.41 0.069,0.415 0.025,0.403C-0.018,0.389 -0.058,0.368 -0.094,0.341C-0.16,0.291 -0.219,0.232 -0.267,0.164" style="fill:url(#_Linear9);fill-rule:nonzero;"/>
        </g>
    </g>
    <g transform="matrix(-84.846975,-21.584647,-21.584647,84.846975,73.264009,188.524915)">
        <clipPath id="_clip10">
            <path d="M1.342,-1.88L-3.273,-3.054L-4.948,3.531L-0.333,4.705L1.342,-1.88Z"/>
        </clipPath>
        <g clip-path="url(#_clip10)">
            <path d="M-0.312,0.817C0.048,0.755 0.384,0.556 0.62,0.278C0.756,0.119 0.925,-0.132 0.945,-0.346C0.966,-0.57 0.716,-0.779 0.514,-0.808C0.476,-0.814 0.437,-0.814 0.398,-0.809C0.444,-0.184 0.178,0.426 -0.312,0.817" style="fill:url(#_Linear11);fill-rule:nonzero;"/>
        </g>
    </g>
    <g transform="matrix(-110.283406,64.609779,64.609779,110.283406,127.678342,424.969631)">
        <clipPath id="_clip12">
            <path d="M-0.82,-3.374L-3.633,-1.725L-1.281,2.289L1.533,0.641L-0.82,-3.374Z"/>
        </clipPath>
        <g clip-path="url(#_clip12)">
            <path d="M0.268,0.769L0.354,0.891C0.424,0.987 0.524,1.09 0.642,1.073C0.755,1.056 0.824,0.929 0.817,0.815C0.81,0.702 0.747,0.6 0.685,0.504C0.329,-0.042 -0.124,-0.633 -0.52,-1.15C-0.52,-1.15 0.232,0.08 0.268,0.769" style="fill:url(#_Linear13);fill-rule:nonzero;"/>
        </g>
    </g>
    <defs>
        <linearGradient id="_Linear1" x1="0" y1="0" x2="1" y2="0" gradientUnits="userSpaceOnUse" gradientTransform="matrix(1,0,0,1,0,0.004)"><stop offset="0" style="stop-color:rgb(78,232,196);stop-opacity:1"/><stop offset="0.5" style="stop-color:rgb(245,196,104);stop-opacity:1"/><stop offset="1" style="stop-color:rgb(232,72,152);stop-opacity:1"/></linearGradient>
        <linearGradient id="_Linear3" x1="0" y1="0" x2="1" y2="0" gradientUnits="userSpaceOnUse" gradientTransform="matrix(-0.281672,-0.959511,0.959511,-0.281672,0.597775,0.447519)"><stop offset="0" style="stop-color:rgb(154,128,64);stop-opacity:1"/><stop offset="0.5" style="stop-color:rgb(196,168,88);stop-opacity:1"/><stop offset="1" style="stop-color:rgb(224,200,120);stop-opacity:1"/></linearGradient>
        <linearGradient id="_Linear5" x1="0" y1="0" x2="1" y2="0" gradientUnits="userSpaceOnUse" gradientTransform="matrix(-0.314059,0.949404,-0.949404,-0.314059,0.574244,-0.414889)"><stop offset="0" style="stop-color:rgb(154,128,64);stop-opacity:1"/><stop offset="0.5" style="stop-color:rgb(136,176,104);stop-opacity:1"/><stop offset="1" style="stop-color:rgb(120,200,152);stop-opacity:1"/></linearGradient>
        <linearGradient id="_Linear7" x1="0" y1="0" x2="1" y2="0" gradientUnits="userSpaceOnUse" gradientTransform="matrix(1,0,0,1,0,0.032)"><stop offset="0" style="stop-color:rgb(26,72,104);stop-opacity:1"/><stop offset="1" style="stop-color:rgb(176,108,224);stop-opacity:1"/></linearGradient>
        <linearGradient id="_Linear9" x1="0" y1="0" x2="1" y2="0" gradientUnits="userSpaceOnUse" gradientTransform="matrix(1,0,0,1,0,-0.017)"><stop offset="0" style="stop-color:rgb(26,72,104);stop-opacity:1"/><stop offset="1" style="stop-color:rgb(176,108,224);stop-opacity:1"/></linearGradient>
        <linearGradient id="_Linear11" x1="0" y1="0" x2="1" y2="0" gradientUnits="userSpaceOnUse" gradientTransform="matrix(1,0,0,1,0,0.002)"><stop offset="0" style="stop-color:rgb(26,72,104);stop-opacity:1"/><stop offset="1" style="stop-color:rgb(176,108,224);stop-opacity:1"/></linearGradient>
        <linearGradient id="_Linear13" x1="0" y1="0" x2="1" y2="0" gradientUnits="userSpaceOnUse" gradientTransform="matrix(1,0,0,1,0,-0.015)"><stop offset="0" style="stop-color:rgb(238,125,131);stop-opacity:1"/><stop offset="1" style="stop-color:rgb(176,108,224);stop-opacity:1"/></linearGradient>
    </defs>
</svg>
